<svg xmlns="http://www.w3.org/2000/svg" viewBox="0 0 1000 1000">
  <rect width="1000" height="1000" fill="#1a2332"/>
  <g fill="#5fffc4">
    <!-- Left vertical bar -->
    <polygon points="233,234 303,284 303,716 233,766 233,234"/>

    <!-- Top left corner -->
    <polygon points="303,234 424,234 424,308 356,369 303,308 303,234"/>

    <!-- Top middle vertical -->
    <polygon points="424,234 494,234 494,516 424,516 424,234"/>

    <!-- Top right vertical -->
    <polygon points="582,234 652,234 652,516 582,516 582,234"/>

    <!-- Top right corner -->
    <polygon points="652,234 773,234 773,308 720,369 652,308 652,234"/>

    <!-- Right vertical bar -->
    <polygon points="697,284 767,234 767,766 697,716 697,284"/>

    <!-- Center inverted V (pointing down) -->
    <polygon points="424,370 494,450 494,516 582,516 582,450 652,370 582,450 494,450 424,370"/>

    <!-- Left diagonal from center to bottom left -->
    <polygon points="233,766 303,716 424,650 424,720 304,788 233,788 233,766"/>

    <!-- Bottom left to center horizontal -->
    <polygon points="303,716 424,650 424,720 303,788 303,716"/>

    <!-- Center bottom point -->
    <polygon points="424,650 538,730 538,788 494,788 424,720 424,650"/>
    <polygon points="652,650 538,730 538,788 582,788 652,720 652,650"/>

    <!-- Right diagonal from center to bottom right -->
    <polygon points="767,766 697,716 652,650 652,720 696,788 767,788 767,766"/>

    <!-- Bottom right to center horizontal -->
    <polygon points="697,716 652,650 652,720 772,788 697,716"/>
  </g>
</svg>
